<svg xmlns="http://www.w3.org/2000/svg" xmlns:xlink="http://www.w3.org/1999/xlink" width="500" zoomAndPan="magnify" viewBox="0 0 375 374.999991" height="500" preserveAspectRatio="xMidYMid meet" version="1.0"><defs><g/><clipPath id="dcecd26d90"><path d="M 112.5 101.738281 L 262.5 101.738281 L 262.5 199.988281 L 112.5 199.988281 Z M 112.5 101.738281 " clip-rule="nonzero"/></clipPath></defs><g clip-path="url(#dcecd26d90)"><path fill="#1d1d1d" d="M 262.054688 199.101562 L 251.992188 199.101562 L 251.992188 157.410156 C 251.992188 157.238281 251.890625 157.082031 251.738281 157.007812 L 231.613281 147.3125 C 231.492188 147.25 231.347656 147.25 231.226562 147.3125 L 211.742188 156.695312 L 211.742188 138.621094 C 211.742188 138.453125 211.644531 138.296875 211.492188 138.222656 L 191.367188 128.523438 C 191.242188 128.464844 191.101562 128.464844 190.976562 128.523438 L 171.496094 137.910156 L 171.496094 117.625 C 171.496094 117.457031 171.394531 117.300781 171.242188 117.226562 L 151.117188 107.527344 C 150.996094 107.46875 150.851562 107.46875 150.730469 107.527344 L 142.898438 111.296875 C 140.628906 105.5625 135.035156 101.746094 128.824219 101.746094 C 120.476562 101.746094 113.6875 108.523438 113.6875 116.847656 C 113.6875 125.171875 120.476562 131.949219 128.824219 131.949219 C 129.328125 131.949219 129.839844 131.921875 130.34375 131.871094 L 130.34375 199.101562 L 112.945312 199.101562 C 112.699219 199.101562 112.5 199.300781 112.5 199.546875 C 112.5 199.792969 112.699219 199.992188 112.945312 199.992188 L 262.054688 199.992188 C 262.300781 199.992188 262.5 199.792969 262.5 199.546875 C 262.5 199.300781 262.300781 199.101562 262.054688 199.101562 Z M 251.097656 173.023438 L 231.867188 163.757812 L 231.867188 160.277344 L 251.097656 169.542969 Z M 251.097656 184.742188 L 231.867188 175.476562 L 231.867188 171.996094 L 251.097656 181.261719 Z M 251.097656 196.460938 L 231.867188 187.195312 L 231.867188 183.71875 L 251.097656 192.984375 Z M 210.847656 154.238281 L 191.617188 144.972656 L 191.617188 141.492188 L 210.847656 150.761719 Z M 210.847656 165.957031 L 191.617188 156.691406 L 191.617188 153.210938 L 210.847656 162.476562 Z M 210.847656 177.675781 L 191.617188 168.410156 L 191.617188 164.929688 L 210.847656 174.195312 Z M 210.847656 189.398438 L 191.617188 180.128906 L 191.617188 176.652344 L 210.847656 185.917969 Z M 170.59375 133.238281 L 151.363281 123.972656 L 151.363281 120.496094 L 170.59375 129.761719 Z M 170.59375 144.957031 L 151.363281 135.691406 L 151.363281 132.210938 L 170.59375 141.480469 Z M 170.59375 156.679688 L 151.363281 147.414062 L 151.363281 143.933594 L 170.59375 153.199219 Z M 170.59375 168.398438 L 151.363281 159.132812 L 151.363281 155.652344 L 170.59375 164.917969 Z M 170.59375 180.117188 L 151.363281 170.847656 L 151.363281 167.375 L 170.59375 176.640625 Z M 170.59375 191.835938 L 151.363281 182.570312 L 151.363281 179.089844 L 170.59375 188.359375 Z M 128.824219 131.058594 C 120.972656 131.058594 114.582031 124.683594 114.582031 116.847656 C 114.582031 109.011719 120.972656 102.636719 128.824219 102.636719 C 134.691406 102.636719 139.972656 106.257812 142.089844 111.6875 L 130.597656 117.226562 C 130.445312 117.300781 130.347656 117.457031 130.347656 117.625 L 130.347656 130.96875 C 129.839844 131.019531 129.328125 131.058594 128.824219 131.058594 Z M 131.242188 117.90625 L 150.917969 108.425781 L 170.59375 117.90625 L 170.59375 128.769531 L 151.113281 119.378906 C 150.976562 119.316406 150.808594 119.324219 150.679688 119.40625 C 150.550781 119.484375 150.472656 119.628906 150.472656 119.78125 L 150.472656 124.25 C 150.472656 124.421875 150.570312 124.578125 150.722656 124.652344 L 170.59375 134.226562 L 170.59375 140.484375 L 151.113281 131.097656 C 150.976562 131.03125 150.808594 131.042969 150.679688 131.121094 C 150.550781 131.203125 150.472656 131.347656 150.472656 131.5 L 150.472656 135.96875 C 150.472656 136.140625 150.570312 136.296875 150.722656 136.371094 L 170.59375 145.945312 L 170.59375 152.203125 L 151.113281 142.816406 C 150.976562 142.75 150.808594 142.761719 150.679688 142.839844 C 150.550781 142.921875 150.472656 143.066406 150.472656 143.21875 L 150.472656 147.6875 C 150.472656 147.859375 150.570312 148.015625 150.722656 148.089844 L 170.59375 157.664062 L 170.59375 163.921875 L 151.113281 154.535156 C 150.976562 154.46875 150.808594 154.476562 150.679688 154.558594 C 150.550781 154.640625 150.472656 154.785156 150.472656 154.9375 L 150.472656 159.40625 C 150.472656 159.578125 150.570312 159.734375 150.722656 159.808594 L 170.59375 169.382812 L 170.59375 175.640625 L 151.113281 166.253906 C 150.976562 166.1875 150.808594 166.195312 150.679688 166.277344 C 150.550781 166.359375 150.472656 166.5 150.472656 166.65625 L 150.472656 171.125 C 150.472656 171.296875 150.570312 171.449219 150.722656 171.527344 L 170.59375 181.101562 L 170.59375 187.359375 L 151.113281 177.972656 C 150.976562 177.90625 150.808594 177.914062 150.679688 177.996094 C 150.550781 178.078125 150.472656 178.21875 150.472656 178.371094 L 150.472656 182.84375 C 150.472656 183.011719 150.570312 183.167969 150.722656 183.242188 L 170.59375 192.820312 L 170.59375 199.09375 L 131.242188 199.09375 Z M 171.488281 138.902344 L 191.164062 129.421875 L 210.84375 138.902344 L 210.84375 149.765625 L 191.359375 140.378906 C 191.21875 140.3125 191.054688 140.324219 190.925781 140.402344 C 190.796875 140.484375 190.714844 140.628906 190.714844 140.78125 L 190.714844 145.25 C 190.714844 145.421875 190.816406 145.578125 190.96875 145.652344 L 210.839844 155.226562 L 210.839844 161.484375 L 191.355469 152.097656 C 191.21875 152.03125 191.050781 152.042969 190.921875 152.121094 C 190.792969 152.203125 190.714844 152.347656 190.714844 152.5 L 190.714844 156.96875 C 190.714844 157.140625 190.8125 157.296875 190.964844 157.371094 L 210.835938 166.945312 L 210.835938 173.203125 L 191.351562 163.816406 C 191.214844 163.75 191.050781 163.757812 190.921875 163.839844 C 190.789062 163.921875 190.710938 164.066406 190.710938 164.21875 L 190.710938 168.6875 C 190.710938 168.859375 190.808594 169.015625 190.960938 169.089844 L 210.832031 178.664062 L 210.832031 184.921875 L 191.347656 175.535156 C 191.210938 175.46875 191.046875 175.476562 190.917969 175.558594 C 190.789062 175.640625 190.707031 175.78125 190.707031 175.9375 L 190.707031 180.40625 C 190.707031 180.578125 190.804688 180.730469 190.957031 180.808594 L 210.832031 190.382812 L 210.832031 199.097656 L 171.488281 199.097656 Z M 211.738281 199.101562 L 211.738281 157.691406 L 231.417969 148.210938 L 251.09375 157.691406 L 251.09375 168.554688 L 231.613281 159.167969 C 231.472656 159.101562 231.308594 159.109375 231.179688 159.191406 C 231.050781 159.273438 230.96875 159.414062 230.96875 159.566406 L 230.96875 164.039062 C 230.96875 164.207031 231.070312 164.363281 231.222656 164.4375 L 251.09375 174.015625 L 251.09375 180.269531 L 231.613281 170.886719 C 231.472656 170.820312 231.308594 170.828125 231.179688 170.910156 C 231.050781 170.988281 230.96875 171.132812 230.96875 171.285156 L 230.96875 175.757812 C 230.96875 175.925781 231.070312 176.082031 231.222656 176.15625 L 251.09375 185.730469 L 251.09375 191.988281 L 231.613281 182.601562 C 231.472656 182.539062 231.308594 182.546875 231.179688 182.628906 C 231.050781 182.707031 230.96875 182.851562 230.96875 183.003906 L 230.96875 187.472656 C 230.96875 187.644531 231.070312 187.800781 231.222656 187.875 L 251.09375 197.449219 L 251.09375 199.101562 Z M 211.738281 199.101562 " fill-opacity="1" fill-rule="nonzero"/></g><g fill="#1d1d1d" fill-opacity="1"><g transform="translate(132.106681, 253.385285)"><g><path d="M 5.578125 -0.984375 L 5.578125 0 L 0.84375 0 L 0.84375 -6.296875 L 5.4375 -6.296875 L 5.4375 -5.3125 L 2.015625 -5.3125 L 2.015625 -3.6875 L 5.0625 -3.6875 L 5.0625 -2.71875 L 2.015625 -2.71875 L 2.015625 -0.984375 Z M 5.578125 -0.984375 "/></g></g></g><g fill="#1d1d1d" fill-opacity="1"><g transform="translate(140.989959, 253.385285)"><g><path d="M 5.140625 -3.21875 L 6.25 -3.21875 L 6.25 -0.71875 C 5.925781 -0.457031 5.546875 -0.253906 5.109375 -0.109375 C 4.679688 0.0234375 4.238281 0.09375 3.78125 0.09375 C 3.144531 0.09375 2.566406 -0.046875 2.046875 -0.328125 C 1.535156 -0.609375 1.128906 -0.992188 0.828125 -1.484375 C 0.535156 -1.972656 0.390625 -2.53125 0.390625 -3.15625 C 0.390625 -3.769531 0.535156 -4.320312 0.828125 -4.8125 C 1.128906 -5.300781 1.535156 -5.6875 2.046875 -5.96875 C 2.566406 -6.25 3.15625 -6.390625 3.8125 -6.390625 C 4.332031 -6.390625 4.804688 -6.300781 5.234375 -6.125 C 5.671875 -5.957031 6.039062 -5.703125 6.34375 -5.359375 L 5.59375 -4.640625 C 5.113281 -5.117188 4.535156 -5.359375 3.859375 -5.359375 C 3.410156 -5.359375 3.015625 -5.265625 2.671875 -5.078125 C 2.328125 -4.898438 2.054688 -4.640625 1.859375 -4.296875 C 1.671875 -3.960938 1.578125 -3.582031 1.578125 -3.15625 C 1.578125 -2.726562 1.671875 -2.347656 1.859375 -2.015625 C 2.054688 -1.679688 2.328125 -1.414062 2.671875 -1.21875 C 3.015625 -1.03125 3.410156 -0.9375 3.859375 -0.9375 C 4.347656 -0.9375 4.773438 -1.046875 5.140625 -1.265625 Z M 5.140625 -3.21875 "/></g></g></g><g fill="#1d1d1d" fill-opacity="1"><g transform="translate(150.791248, 253.385285)"><g><path d="M 0.84375 -6.296875 L 2.015625 -6.296875 L 2.015625 0 L 0.84375 0 Z M 0.84375 -6.296875 "/></g></g></g><g fill="#1d1d1d" fill-opacity="1"><g transform="translate(156.515511, 253.385285)"><g><path d="M 0.84375 -6.296875 L 3.59375 -6.296875 C 4.269531 -6.296875 4.867188 -6.164062 5.390625 -5.90625 C 5.910156 -5.644531 6.3125 -5.273438 6.59375 -4.796875 C 6.882812 -4.328125 7.03125 -3.78125 7.03125 -3.15625 C 7.03125 -2.53125 6.882812 -1.976562 6.59375 -1.5 C 6.3125 -1.019531 5.910156 -0.648438 5.390625 -0.390625 C 4.867188 -0.128906 4.269531 0 3.59375 0 L 0.84375 0 Z M 3.546875 -0.984375 C 4.003906 -0.984375 4.410156 -1.070312 4.765625 -1.25 C 5.117188 -1.425781 5.390625 -1.675781 5.578125 -2 C 5.765625 -2.332031 5.859375 -2.71875 5.859375 -3.15625 C 5.859375 -3.582031 5.765625 -3.957031 5.578125 -4.28125 C 5.390625 -4.613281 5.117188 -4.867188 4.765625 -5.046875 C 4.410156 -5.222656 4.003906 -5.3125 3.546875 -5.3125 L 2.015625 -5.3125 L 2.015625 -0.984375 Z M 3.546875 -0.984375 "/></g></g></g><g fill="#1d1d1d" fill-opacity="1"><g transform="translate(166.802796, 253.385285)"><g><path d="M 0.84375 -6.296875 L 2.015625 -6.296875 L 2.015625 0 L 0.84375 0 Z M 0.84375 -6.296875 "/></g></g></g><g fill="#1d1d1d" fill-opacity="1"><g transform="translate(172.527059, 253.385285)"><g><path d="M 3.78125 0.09375 C 3.144531 0.09375 2.566406 -0.046875 2.046875 -0.328125 C 1.535156 -0.609375 1.128906 -0.992188 0.828125 -1.484375 C 0.535156 -1.984375 0.390625 -2.539062 0.390625 -3.15625 C 0.390625 -3.757812 0.535156 -4.304688 0.828125 -4.796875 C 1.128906 -5.296875 1.535156 -5.6875 2.046875 -5.96875 C 2.566406 -6.25 3.144531 -6.390625 3.78125 -6.390625 C 4.425781 -6.390625 5.003906 -6.25 5.515625 -5.96875 C 6.035156 -5.6875 6.441406 -5.300781 6.734375 -4.8125 C 7.035156 -4.320312 7.1875 -3.769531 7.1875 -3.15625 C 7.1875 -2.53125 7.035156 -1.972656 6.734375 -1.484375 C 6.441406 -0.992188 6.035156 -0.609375 5.515625 -0.328125 C 5.003906 -0.046875 4.425781 0.09375 3.78125 0.09375 Z M 3.78125 -0.9375 C 4.207031 -0.9375 4.585938 -1.03125 4.921875 -1.21875 C 5.253906 -1.40625 5.515625 -1.664062 5.703125 -2 C 5.898438 -2.34375 6 -2.726562 6 -3.15625 C 6 -3.570312 5.898438 -3.945312 5.703125 -4.28125 C 5.515625 -4.625 5.253906 -4.890625 4.921875 -5.078125 C 4.585938 -5.265625 4.207031 -5.359375 3.78125 -5.359375 C 3.363281 -5.359375 2.988281 -5.265625 2.65625 -5.078125 C 2.320312 -4.890625 2.054688 -4.625 1.859375 -4.28125 C 1.671875 -3.945312 1.578125 -3.570312 1.578125 -3.15625 C 1.578125 -2.726562 1.671875 -2.34375 1.859375 -2 C 2.054688 -1.664062 2.320312 -1.40625 2.65625 -1.21875 C 2.988281 -1.03125 3.363281 -0.9375 3.78125 -0.9375 Z M 3.78125 -0.9375 "/></g></g></g><g fill="#1d1d1d" fill-opacity="1"><g transform="translate(182.958345, 253.385285)"><g/></g></g><g fill="#1d1d1d" fill-opacity="1"><g transform="translate(188.2956, 253.385285)"><g><path d="M 5.734375 -0.984375 L 5.734375 0 L 0.375 0 L 0.375 -0.78125 L 4.078125 -5.3125 L 0.4375 -5.3125 L 0.4375 -6.296875 L 5.625 -6.296875 L 5.625 -5.515625 L 1.921875 -0.984375 Z M 5.734375 -0.984375 "/></g></g></g><g fill="#1d1d1d" fill-opacity="1"><g transform="translate(197.115881, 253.385285)"><g><path d="M 3.5625 0.09375 C 2.6875 0.09375 2.003906 -0.148438 1.515625 -0.640625 C 1.035156 -1.128906 0.796875 -1.832031 0.796875 -2.75 L 0.796875 -6.296875 L 1.96875 -6.296875 L 1.96875 -2.796875 C 1.96875 -1.554688 2.5 -0.9375 3.5625 -0.9375 C 4.625 -0.9375 5.15625 -1.554688 5.15625 -2.796875 L 5.15625 -6.296875 L 6.3125 -6.296875 L 6.3125 -2.75 C 6.3125 -1.832031 6.066406 -1.128906 5.578125 -0.640625 C 5.097656 -0.148438 4.425781 0.09375 3.5625 0.09375 Z M 3.5625 0.09375 "/></g></g></g><g fill="#1d1d1d" fill-opacity="1"><g transform="translate(207.070169, 253.385285)"><g><path d="M 0.84375 -6.296875 L 3.59375 -6.296875 C 4.269531 -6.296875 4.867188 -6.164062 5.390625 -5.90625 C 5.910156 -5.644531 6.3125 -5.273438 6.59375 -4.796875 C 6.882812 -4.328125 7.03125 -3.78125 7.03125 -3.15625 C 7.03125 -2.53125 6.882812 -1.976562 6.59375 -1.5 C 6.3125 -1.019531 5.910156 -0.648438 5.390625 -0.390625 C 4.867188 -0.128906 4.269531 0 3.59375 0 L 0.84375 0 Z M 3.546875 -0.984375 C 4.003906 -0.984375 4.410156 -1.070312 4.765625 -1.25 C 5.117188 -1.425781 5.390625 -1.675781 5.578125 -2 C 5.765625 -2.332031 5.859375 -2.71875 5.859375 -3.15625 C 5.859375 -3.582031 5.765625 -3.957031 5.578125 -4.28125 C 5.390625 -4.613281 5.117188 -4.867188 4.765625 -5.046875 C 4.410156 -5.222656 4.003906 -5.3125 3.546875 -5.3125 L 2.015625 -5.3125 L 2.015625 -0.984375 Z M 3.546875 -0.984375 "/></g></g></g><g fill="#1d1d1d" fill-opacity="1"><g transform="translate(217.357457, 253.385285)"><g><path d="M 0.84375 -6.296875 L 3.59375 -6.296875 C 4.269531 -6.296875 4.867188 -6.164062 5.390625 -5.90625 C 5.910156 -5.644531 6.3125 -5.273438 6.59375 -4.796875 C 6.882812 -4.328125 7.03125 -3.78125 7.03125 -3.15625 C 7.03125 -2.53125 6.882812 -1.976562 6.59375 -1.5 C 6.3125 -1.019531 5.910156 -0.648438 5.390625 -0.390625 C 4.867188 -0.128906 4.269531 0 3.59375 0 L 0.84375 0 Z M 3.546875 -0.984375 C 4.003906 -0.984375 4.410156 -1.070312 4.765625 -1.25 C 5.117188 -1.425781 5.390625 -1.675781 5.578125 -2 C 5.765625 -2.332031 5.859375 -2.71875 5.859375 -3.15625 C 5.859375 -3.582031 5.765625 -3.957031 5.578125 -4.28125 C 5.390625 -4.613281 5.117188 -4.867188 4.765625 -5.046875 C 4.410156 -5.222656 4.003906 -5.3125 3.546875 -5.3125 L 2.015625 -5.3125 L 2.015625 -0.984375 Z M 3.546875 -0.984375 "/></g></g></g><g fill="#1d1d1d" fill-opacity="1"><g transform="translate(227.644745, 253.385285)"><g><path d="M 4.9375 -1.453125 L 1.78125 -1.453125 L 1.15625 0 L -0.046875 0 L 2.796875 -6.296875 L 3.9375 -6.296875 L 6.78125 0 L 5.5625 0 Z M 4.546875 -2.375 L 3.359375 -5.125 L 2.171875 -2.375 Z M 4.546875 -2.375 "/></g></g></g><g fill="#1d1d1d" fill-opacity="1"><g transform="translate(237.239036, 253.385285)"><g><path d="M 2.796875 0.09375 C 2.304688 0.09375 1.835938 0.0234375 1.390625 -0.109375 C 0.941406 -0.253906 0.582031 -0.441406 0.3125 -0.671875 L 0.71875 -1.578125 C 0.976562 -1.367188 1.296875 -1.195312 1.671875 -1.0625 C 2.046875 -0.9375 2.421875 -0.875 2.796875 -0.875 C 3.265625 -0.875 3.613281 -0.945312 3.84375 -1.09375 C 4.070312 -1.25 4.1875 -1.453125 4.1875 -1.703125 C 4.1875 -1.878906 4.125 -2.023438 4 -2.140625 C 3.875 -2.265625 3.710938 -2.359375 3.515625 -2.421875 C 3.316406 -2.484375 3.046875 -2.554688 2.703125 -2.640625 C 2.222656 -2.753906 1.832031 -2.867188 1.53125 -2.984375 C 1.238281 -3.097656 0.984375 -3.273438 0.765625 -3.515625 C 0.554688 -3.765625 0.453125 -4.097656 0.453125 -4.515625 C 0.453125 -4.859375 0.546875 -5.171875 0.734375 -5.453125 C 0.921875 -5.742188 1.203125 -5.972656 1.578125 -6.140625 C 1.960938 -6.304688 2.429688 -6.390625 2.984375 -6.390625 C 3.367188 -6.390625 3.75 -6.34375 4.125 -6.25 C 4.5 -6.15625 4.816406 -6.015625 5.078125 -5.828125 L 4.71875 -4.921875 C 4.4375 -5.085938 4.144531 -5.210938 3.84375 -5.296875 C 3.550781 -5.378906 3.265625 -5.421875 2.984375 -5.421875 C 2.515625 -5.421875 2.164062 -5.34375 1.9375 -5.1875 C 1.71875 -5.03125 1.609375 -4.820312 1.609375 -4.5625 C 1.609375 -4.382812 1.671875 -4.238281 1.796875 -4.125 C 1.929688 -4.007812 2.097656 -3.914062 2.296875 -3.84375 C 2.492188 -3.78125 2.765625 -3.707031 3.109375 -3.625 C 3.578125 -3.519531 3.957031 -3.40625 4.25 -3.28125 C 4.550781 -3.164062 4.804688 -2.988281 5.015625 -2.75 C 5.234375 -2.507812 5.34375 -2.1875 5.34375 -1.78125 C 5.34375 -1.4375 5.25 -1.117188 5.0625 -0.828125 C 4.875 -0.546875 4.585938 -0.320312 4.203125 -0.15625 C 3.816406 0.0078125 3.347656 0.09375 2.796875 0.09375 Z M 2.796875 0.09375 "/></g></g></g><g fill="#1d1d1d" fill-opacity="1"><g transform="translate(45.522002, 232.864175)"><g><path d="M 18.671875 -16.5625 C 18.273438 -16.5625 17.929688 -16.421875 17.640625 -16.140625 C 17.347656 -15.859375 17.195312 -15.519531 17.1875 -15.125 L 17.1875 -2.734375 C 17.1875 -1.804688 17.242188 -0.925781 17.359375 -0.09375 L 17.40625 0.34375 L 17.1875 0.34375 L 4.109375 -13.625 L 4.109375 -1.6875 C 4.117188 -1.125 4.363281 -0.707031 4.84375 -0.4375 C 5.070312 -0.300781 5.3125 -0.234375 5.5625 -0.234375 L 6.03125 -0.234375 L 6.03125 0 L 1.078125 0 L 1.078125 -0.234375 L 1.53125 -0.234375 C 1.9375 -0.234375 2.28125 -0.375 2.5625 -0.65625 C 2.851562 -0.9375 3 -1.285156 3 -1.703125 L 3 -14.15625 C 3 -15.132812 2.941406 -16.007812 2.828125 -16.78125 L 2.78125 -17.15625 L 3.03125 -17.15625 L 16.109375 -3.1875 L 16.109375 -15.09375 C 16.085938 -15.507812 15.929688 -15.859375 15.640625 -16.140625 C 15.359375 -16.421875 15.015625 -16.5625 14.609375 -16.5625 L 14.15625 -16.5625 L 14.15625 -16.796875 L 19.109375 -16.796875 L 19.109375 -16.5625 Z M 18.671875 -16.5625 "/></g></g></g><g fill="#1d1d1d" fill-opacity="1"><g transform="translate(68.250037, 232.864175)"><g><path d="M 4.0625 -14.71875 C 5.65625 -16.332031 7.734375 -17.140625 10.296875 -17.140625 C 12.859375 -17.140625 14.9375 -16.332031 16.53125 -14.71875 C 18.132812 -13.113281 18.9375 -11.003906 18.9375 -8.390625 C 18.9375 -5.785156 18.132812 -3.675781 16.53125 -2.0625 C 14.9375 -0.457031 12.859375 0.34375 10.296875 0.34375 C 7.734375 0.34375 5.65625 -0.457031 4.0625 -2.0625 C 2.476562 -3.675781 1.6875 -5.785156 1.6875 -8.390625 C 1.6875 -11.003906 2.476562 -13.113281 4.0625 -14.71875 Z M 5.390625 -2.59375 C 6.628906 -1.125 8.269531 -0.390625 10.3125 -0.390625 C 12.351562 -0.390625 13.992188 -1.125 15.234375 -2.59375 C 16.472656 -4.0625 17.09375 -6 17.09375 -8.40625 C 17.09375 -9.988281 16.8125 -11.382812 16.25 -12.59375 C 15.6875 -13.8125 14.890625 -14.753906 13.859375 -15.421875 C 12.828125 -16.085938 11.640625 -16.421875 10.296875 -16.421875 C 8.265625 -16.421875 6.628906 -15.679688 5.390625 -14.203125 C 4.148438 -12.734375 3.53125 -10.796875 3.53125 -8.390625 C 3.53125 -5.992188 4.148438 -4.0625 5.390625 -2.59375 Z M 5.390625 -2.59375 "/></g></g></g><g fill="#1d1d1d" fill-opacity="1"><g transform="translate(90.906077, 232.864175)"><g><path d="M 6.390625 -16.0625 L 4.84375 -16.0625 L 4.84375 -1.75 C 4.84375 -1.332031 4.988281 -0.972656 5.28125 -0.671875 C 5.582031 -0.378906 5.953125 -0.234375 6.390625 -0.234375 L 6.671875 -0.234375 L 6.703125 0 L 1.4375 0 L 1.4375 -0.234375 L 1.75 -0.234375 C 2.164062 -0.234375 2.519531 -0.378906 2.8125 -0.671875 C 3.113281 -0.960938 3.269531 -1.316406 3.28125 -1.734375 L 3.28125 -15.046875 C 3.269531 -15.460938 3.113281 -15.816406 2.8125 -16.109375 C 2.519531 -16.410156 2.164062 -16.5625 1.75 -16.5625 L 1.4375 -16.5625 L 1.4375 -16.796875 L 7.921875 -16.796875 C 9.378906 -16.796875 10.519531 -16.390625 11.34375 -15.578125 C 12.175781 -14.773438 12.59375 -13.726562 12.59375 -12.4375 C 12.59375 -11.15625 12.195312 -10.046875 11.40625 -9.109375 C 10.613281 -8.171875 9.648438 -7.703125 8.515625 -7.703125 C 8.753906 -7.585938 9.035156 -7.363281 9.359375 -7.03125 C 9.691406 -6.707031 9.988281 -6.375 10.25 -6.03125 C 11.625 -4.0625 12.519531 -2.847656 12.9375 -2.390625 C 13.351562 -1.929688 13.648438 -1.617188 13.828125 -1.453125 C 14.003906 -1.285156 14.195312 -1.117188 14.40625 -0.953125 C 14.613281 -0.796875 14.820312 -0.671875 15.03125 -0.578125 C 15.488281 -0.347656 15.984375 -0.234375 16.515625 -0.234375 L 16.515625 0 L 15.1875 0 C 14.5 0 13.859375 -0.125 13.265625 -0.375 C 12.679688 -0.625 12.238281 -0.878906 11.9375 -1.140625 C 11.644531 -1.398438 11.390625 -1.65625 11.171875 -1.90625 C 10.953125 -2.15625 10.351562 -2.984375 9.375 -4.390625 C 8.40625 -5.796875 7.835938 -6.597656 7.671875 -6.796875 C 7.515625 -7.003906 7.347656 -7.203125 7.171875 -7.390625 C 6.660156 -7.929688 6.148438 -8.203125 5.640625 -8.203125 L 5.640625 -8.453125 C 5.765625 -8.429688 5.929688 -8.421875 6.140625 -8.421875 C 6.347656 -8.421875 6.601562 -8.429688 6.90625 -8.453125 C 8.894531 -8.492188 10.144531 -9.320312 10.65625 -10.9375 C 10.75 -11.257812 10.796875 -11.5625 10.796875 -11.84375 C 10.796875 -12.125 10.796875 -12.304688 10.796875 -12.390625 C 10.765625 -13.453125 10.484375 -14.3125 9.953125 -14.96875 C 9.429688 -15.625 8.722656 -15.976562 7.828125 -16.03125 C 7.441406 -16.050781 6.960938 -16.0625 6.390625 -16.0625 Z M 6.390625 -16.0625 "/></g></g></g><g fill="#1d1d1d" fill-opacity="1"><g transform="translate(109.698113, 232.864175)"><g><path d="M 9.578125 -16.796875 C 12.140625 -16.796875 14.210938 -16.023438 15.796875 -14.484375 C 17.390625 -12.941406 18.1875 -10.910156 18.1875 -8.390625 C 18.1875 -5.878906 17.390625 -3.851562 15.796875 -2.3125 C 14.210938 -0.769531 12.140625 0 9.578125 0 L 1.4375 0 L 1.4375 -0.234375 L 1.75 -0.234375 C 2.164062 -0.234375 2.519531 -0.378906 2.8125 -0.671875 C 3.113281 -0.972656 3.269531 -1.332031 3.28125 -1.75 L 3.28125 -15.1875 C 3.28125 -15.570312 3.125 -15.894531 2.8125 -16.15625 C 2.507812 -16.425781 2.15625 -16.5625 1.75 -16.5625 L 1.46875 -16.5625 L 1.4375 -16.796875 Z M 4.84375 -16.078125 L 4.84375 -0.71875 L 9.578125 -0.71875 C 10.921875 -0.71875 12.109375 -1.035156 13.140625 -1.671875 C 14.171875 -2.316406 14.96875 -3.21875 15.53125 -4.375 C 16.101562 -5.539062 16.390625 -6.882812 16.390625 -8.40625 C 16.390625 -10.707031 15.757812 -12.5625 14.5 -13.96875 C 13.25 -15.375 11.609375 -16.078125 9.578125 -16.078125 Z M 4.84375 -16.078125 "/></g></g></g><g fill="#1d1d1d" fill-opacity="1"><g transform="translate(131.610148, 232.864175)"><g/></g></g><g fill="#1d1d1d" fill-opacity="1"><g transform="translate(140.154158, 232.864175)"><g><path d="M 1.75 -0.234375 C 2.164062 -0.234375 2.519531 -0.378906 2.8125 -0.671875 C 3.113281 -0.972656 3.269531 -1.332031 3.28125 -1.75 L 3.28125 -15.078125 C 3.269531 -15.492188 3.113281 -15.84375 2.8125 -16.125 C 2.519531 -16.414062 2.164062 -16.5625 1.75 -16.5625 L 1.4375 -16.5625 L 1.4375 -16.796875 L 6.703125 -16.796875 L 6.703125 -16.5625 L 6.390625 -16.5625 C 5.972656 -16.5625 5.613281 -16.414062 5.3125 -16.125 C 5.019531 -15.84375 4.863281 -15.492188 4.84375 -15.078125 L 4.84375 -1.75 C 4.84375 -1.332031 4.992188 -0.972656 5.296875 -0.671875 C 5.609375 -0.378906 5.972656 -0.234375 6.390625 -0.234375 L 6.703125 -0.234375 L 6.703125 0 L 1.4375 0 L 1.4375 -0.234375 Z M 1.75 -0.234375 "/></g></g></g><g fill="#1d1d1d" fill-opacity="1"><g transform="translate(150.81018, 232.864175)"><g><path d="M 21.59375 -0.234375 L 21.984375 -0.234375 L 21.984375 0 L 16.78125 0 L 16.78125 -0.21875 L 17.140625 -0.21875 C 17.410156 -0.21875 17.640625 -0.320312 17.828125 -0.53125 C 18.023438 -0.75 18.109375 -0.988281 18.078125 -1.25 L 16.984375 -13.3125 L 11.953125 -2.109375 C 11.503906 -1.128906 11.234375 -0.3125 11.140625 0.34375 L 10.890625 0.34375 L 4.75 -12.984375 L 3.71875 -1.25 C 3.6875 -0.988281 3.765625 -0.75 3.953125 -0.53125 C 4.148438 -0.320312 4.375 -0.21875 4.625 -0.21875 L 5.015625 -0.21875 L 5.015625 0 L 0.359375 0 L 0.359375 -0.234375 L 0.75 -0.234375 C 1.195312 -0.234375 1.582031 -0.367188 1.90625 -0.640625 C 2.238281 -0.921875 2.4375 -1.289062 2.5 -1.75 L 4.296875 -17.140625 L 4.53125 -17.140625 L 11.234375 -2.65625 L 17.78125 -17.140625 L 18 -17.140625 L 19.84375 -1.75 C 19.925781 -1.113281 20.25 -0.664062 20.8125 -0.40625 C 21.050781 -0.289062 21.3125 -0.234375 21.59375 -0.234375 Z M 21.59375 -0.234375 "/></g></g></g><g fill="#1d1d1d" fill-opacity="1"><g transform="translate(175.698217, 232.864175)"><g><path d="M 21.59375 -0.234375 L 21.984375 -0.234375 L 21.984375 0 L 16.78125 0 L 16.78125 -0.21875 L 17.140625 -0.21875 C 17.410156 -0.21875 17.640625 -0.320312 17.828125 -0.53125 C 18.023438 -0.75 18.109375 -0.988281 18.078125 -1.25 L 16.984375 -13.3125 L 11.953125 -2.109375 C 11.503906 -1.128906 11.234375 -0.3125 11.140625 0.34375 L 10.890625 0.34375 L 4.75 -12.984375 L 3.71875 -1.25 C 3.6875 -0.988281 3.765625 -0.75 3.953125 -0.53125 C 4.148438 -0.320312 4.375 -0.21875 4.625 -0.21875 L 5.015625 -0.21875 L 5.015625 0 L 0.359375 0 L 0.359375 -0.234375 L 0.75 -0.234375 C 1.195312 -0.234375 1.582031 -0.367188 1.90625 -0.640625 C 2.238281 -0.921875 2.4375 -1.289062 2.5 -1.75 L 4.296875 -17.140625 L 4.53125 -17.140625 L 11.234375 -2.65625 L 17.78125 -17.140625 L 18 -17.140625 L 19.84375 -1.75 C 19.925781 -1.113281 20.25 -0.664062 20.8125 -0.40625 C 21.050781 -0.289062 21.3125 -0.234375 21.59375 -0.234375 Z M 21.59375 -0.234375 "/></g></g></g><g fill="#1d1d1d" fill-opacity="1"><g transform="translate(200.586255, 232.864175)"><g><path d="M 4.0625 -14.71875 C 5.65625 -16.332031 7.734375 -17.140625 10.296875 -17.140625 C 12.859375 -17.140625 14.9375 -16.332031 16.53125 -14.71875 C 18.132812 -13.113281 18.9375 -11.003906 18.9375 -8.390625 C 18.9375 -5.785156 18.132812 -3.675781 16.53125 -2.0625 C 14.9375 -0.457031 12.859375 0.34375 10.296875 0.34375 C 7.734375 0.34375 5.65625 -0.457031 4.0625 -2.0625 C 2.476562 -3.675781 1.6875 -5.785156 1.6875 -8.390625 C 1.6875 -11.003906 2.476562 -13.113281 4.0625 -14.71875 Z M 5.390625 -2.59375 C 6.628906 -1.125 8.269531 -0.390625 10.3125 -0.390625 C 12.351562 -0.390625 13.992188 -1.125 15.234375 -2.59375 C 16.472656 -4.0625 17.09375 -6 17.09375 -8.40625 C 17.09375 -9.988281 16.8125 -11.382812 16.25 -12.59375 C 15.6875 -13.8125 14.890625 -14.753906 13.859375 -15.421875 C 12.828125 -16.085938 11.640625 -16.421875 10.296875 -16.421875 C 8.265625 -16.421875 6.628906 -15.679688 5.390625 -14.203125 C 4.148438 -12.734375 3.53125 -10.796875 3.53125 -8.390625 C 3.53125 -5.992188 4.148438 -4.0625 5.390625 -2.59375 Z M 5.390625 -2.59375 "/></g></g></g><g fill="#1d1d1d" fill-opacity="1"><g transform="translate(223.242294, 232.864175)"><g><path d="M 7.296875 0 L 1.4375 0 L 1.46875 -0.234375 L 1.75 -0.234375 C 2.164062 -0.234375 2.519531 -0.378906 2.8125 -0.671875 C 3.113281 -0.960938 3.269531 -1.316406 3.28125 -1.734375 L 3.28125 -15.078125 C 3.28125 -15.492188 3.128906 -15.84375 2.828125 -16.125 C 2.523438 -16.414062 2.164062 -16.5625 1.75 -16.5625 L 1.46875 -16.5625 L 1.4375 -16.796875 L 6.21875 -16.796875 C 7.863281 -16.796875 9.140625 -16.429688 10.046875 -15.703125 C 10.960938 -14.972656 11.421875 -14.003906 11.421875 -12.796875 C 11.421875 -11.835938 11.164062 -11.039062 10.65625 -10.40625 C 10.144531 -9.769531 9.519531 -9.347656 8.78125 -9.140625 C 10.050781 -8.953125 11.050781 -8.429688 11.78125 -7.578125 C 12.519531 -6.734375 12.890625 -5.664062 12.890625 -4.375 C 12.890625 -3.09375 12.394531 -2.039062 11.40625 -1.21875 C 10.425781 -0.40625 9.054688 0 7.296875 0 Z M 4.84375 -0.859375 L 7.203125 -0.859375 C 7.210938 -0.859375 7.226562 -0.859375 7.25 -0.859375 C 8.46875 -0.859375 9.410156 -1.191406 10.078125 -1.859375 C 10.753906 -2.523438 11.09375 -3.46875 11.09375 -4.6875 C 11.09375 -5.375 10.972656 -5.972656 10.734375 -6.484375 C 10.503906 -7.003906 10.210938 -7.421875 9.859375 -7.734375 C 8.929688 -8.492188 7.539062 -8.875 5.6875 -8.875 C 5.6875 -8.875 5.675781 -8.875 5.65625 -8.875 L 5.65625 -9.09375 C 5.675781 -9.09375 5.753906 -9.09375 5.890625 -9.09375 C 6.023438 -9.09375 6.21875 -9.109375 6.46875 -9.140625 C 6.726562 -9.171875 7.019531 -9.226562 7.34375 -9.3125 C 7.664062 -9.394531 7.953125 -9.519531 8.203125 -9.6875 C 8.460938 -9.863281 8.703125 -10.070312 8.921875 -10.3125 C 9.390625 -10.84375 9.625 -11.628906 9.625 -12.671875 C 9.625 -13.722656 9.320312 -14.546875 8.71875 -15.140625 C 8.125 -15.734375 7.257812 -16.03125 6.125 -16.03125 L 4.84375 -16.03125 Z M 4.84375 -0.859375 "/></g></g></g><g fill="#1d1d1d" fill-opacity="1"><g transform="translate(239.850336, 232.864175)"><g><path d="M 1.75 -0.234375 C 2.164062 -0.234375 2.519531 -0.378906 2.8125 -0.671875 C 3.113281 -0.972656 3.269531 -1.332031 3.28125 -1.75 L 3.28125 -15.078125 C 3.269531 -15.492188 3.113281 -15.84375 2.8125 -16.125 C 2.519531 -16.414062 2.164062 -16.5625 1.75 -16.5625 L 1.4375 -16.5625 L 1.4375 -16.796875 L 6.703125 -16.796875 L 6.703125 -16.5625 L 6.390625 -16.5625 C 5.972656 -16.5625 5.613281 -16.414062 5.3125 -16.125 C 5.019531 -15.84375 4.863281 -15.492188 4.84375 -15.078125 L 4.84375 -1.75 C 4.84375 -1.332031 4.992188 -0.972656 5.296875 -0.671875 C 5.609375 -0.378906 5.972656 -0.234375 6.390625 -0.234375 L 6.703125 -0.234375 L 6.703125 0 L 1.4375 0 L 1.4375 -0.234375 Z M 1.75 -0.234375 "/></g></g></g><g fill="#1d1d1d" fill-opacity="1"><g transform="translate(250.506364, 232.864175)"><g><path d="M 1.75 -0.234375 C 2.164062 -0.234375 2.519531 -0.378906 2.8125 -0.671875 C 3.113281 -0.972656 3.269531 -1.332031 3.28125 -1.75 L 3.28125 -15.046875 C 3.269531 -15.460938 3.113281 -15.816406 2.8125 -16.109375 C 2.519531 -16.410156 2.164062 -16.5625 1.75 -16.5625 L 1.4375 -16.5625 L 1.4375 -16.796875 L 6.703125 -16.796875 L 6.703125 -16.5625 L 6.390625 -16.5625 C 5.804688 -16.5625 5.363281 -16.3125 5.0625 -15.8125 C 4.914062 -15.570312 4.84375 -15.316406 4.84375 -15.046875 L 4.84375 -0.75 L 8.28125 -0.75 C 9.46875 -0.75 10.367188 -1.007812 10.984375 -1.53125 C 11.609375 -2.0625 12.128906 -2.847656 12.546875 -3.890625 L 12.796875 -3.890625 L 11.40625 0 L 1.4375 0 L 1.4375 -0.234375 Z M 1.75 -0.234375 "/></g></g></g><g fill="#1d1d1d" fill-opacity="1"><g transform="translate(266.538392, 232.864175)"><g><path d="M 1.75 -0.234375 C 2.164062 -0.234375 2.519531 -0.378906 2.8125 -0.671875 C 3.113281 -0.972656 3.269531 -1.332031 3.28125 -1.75 L 3.28125 -15.078125 C 3.269531 -15.492188 3.113281 -15.84375 2.8125 -16.125 C 2.519531 -16.414062 2.164062 -16.5625 1.75 -16.5625 L 1.4375 -16.5625 L 1.4375 -16.796875 L 6.703125 -16.796875 L 6.703125 -16.5625 L 6.390625 -16.5625 C 5.972656 -16.5625 5.613281 -16.414062 5.3125 -16.125 C 5.019531 -15.84375 4.863281 -15.492188 4.84375 -15.078125 L 4.84375 -1.75 C 4.84375 -1.332031 4.992188 -0.972656 5.296875 -0.671875 C 5.609375 -0.378906 5.972656 -0.234375 6.390625 -0.234375 L 6.703125 -0.234375 L 6.703125 0 L 1.4375 0 L 1.4375 -0.234375 Z M 1.75 -0.234375 "/></g></g></g><g fill="#1d1d1d" fill-opacity="1"><g transform="translate(277.19442, 232.864175)"><g><path d="M 17.1875 -0.234375 L 17.390625 -0.234375 L 17.390625 0 L 11.984375 0 L 11.984375 -0.234375 L 12.203125 -0.234375 C 12.535156 -0.234375 12.785156 -0.34375 12.953125 -0.5625 C 13.117188 -0.78125 13.203125 -0.984375 13.203125 -1.171875 C 13.203125 -1.367188 13.171875 -1.5625 13.109375 -1.75 L 11.578125 -5.828125 L 5.09375 -5.828125 L 3.484375 -1.734375 C 3.421875 -1.535156 3.390625 -1.34375 3.390625 -1.15625 C 3.390625 -0.976562 3.472656 -0.78125 3.640625 -0.5625 C 3.804688 -0.34375 4.0625 -0.234375 4.40625 -0.234375 L 4.609375 -0.234375 L 4.609375 0 L -0.203125 0 L -0.203125 -0.234375 L 0 -0.234375 C 0.40625 -0.234375 0.800781 -0.363281 1.1875 -0.625 C 1.570312 -0.882812 1.882812 -1.257812 2.125 -1.75 L 7.546875 -14.65625 C 8.140625 -15.957031 8.4375 -16.785156 8.4375 -17.140625 L 8.640625 -17.140625 L 15.078125 -1.75 C 15.304688 -1.257812 15.609375 -0.882812 15.984375 -0.625 C 16.367188 -0.363281 16.769531 -0.234375 17.1875 -0.234375 Z M 5.390625 -6.546875 L 11.28125 -6.546875 L 8.40625 -14.25 Z M 5.390625 -6.546875 "/></g></g></g><g fill="#1d1d1d" fill-opacity="1"><g transform="translate(296.82646, 232.864175)"><g><path d="M 6.390625 -16.0625 L 4.84375 -16.0625 L 4.84375 -1.75 C 4.84375 -1.332031 4.988281 -0.972656 5.28125 -0.671875 C 5.582031 -0.378906 5.953125 -0.234375 6.390625 -0.234375 L 6.671875 -0.234375 L 6.703125 0 L 1.4375 0 L 1.4375 -0.234375 L 1.75 -0.234375 C 2.164062 -0.234375 2.519531 -0.378906 2.8125 -0.671875 C 3.113281 -0.960938 3.269531 -1.316406 3.28125 -1.734375 L 3.28125 -15.046875 C 3.269531 -15.460938 3.113281 -15.816406 2.8125 -16.109375 C 2.519531 -16.410156 2.164062 -16.5625 1.75 -16.5625 L 1.4375 -16.5625 L 1.4375 -16.796875 L 7.921875 -16.796875 C 9.378906 -16.796875 10.519531 -16.390625 11.34375 -15.578125 C 12.175781 -14.773438 12.59375 -13.726562 12.59375 -12.4375 C 12.59375 -11.15625 12.195312 -10.046875 11.40625 -9.109375 C 10.613281 -8.171875 9.648438 -7.703125 8.515625 -7.703125 C 8.753906 -7.585938 9.035156 -7.363281 9.359375 -7.03125 C 9.691406 -6.707031 9.988281 -6.375 10.25 -6.03125 C 11.625 -4.0625 12.519531 -2.847656 12.9375 -2.390625 C 13.351562 -1.929688 13.648438 -1.617188 13.828125 -1.453125 C 14.003906 -1.285156 14.195312 -1.117188 14.40625 -0.953125 C 14.613281 -0.796875 14.820312 -0.671875 15.03125 -0.578125 C 15.488281 -0.347656 15.984375 -0.234375 16.515625 -0.234375 L 16.515625 0 L 15.1875 0 C 14.5 0 13.859375 -0.125 13.265625 -0.375 C 12.679688 -0.625 12.238281 -0.878906 11.9375 -1.140625 C 11.644531 -1.398438 11.390625 -1.65625 11.171875 -1.90625 C 10.953125 -2.15625 10.351562 -2.984375 9.375 -4.390625 C 8.40625 -5.796875 7.835938 -6.597656 7.671875 -6.796875 C 7.515625 -7.003906 7.347656 -7.203125 7.171875 -7.390625 C 6.660156 -7.929688 6.148438 -8.203125 5.640625 -8.203125 L 5.640625 -8.453125 C 5.765625 -8.429688 5.929688 -8.421875 6.140625 -8.421875 C 6.347656 -8.421875 6.601562 -8.429688 6.90625 -8.453125 C 8.894531 -8.492188 10.144531 -9.320312 10.65625 -10.9375 C 10.75 -11.257812 10.796875 -11.5625 10.796875 -11.84375 C 10.796875 -12.125 10.796875 -12.304688 10.796875 -12.390625 C 10.765625 -13.453125 10.484375 -14.3125 9.953125 -14.96875 C 9.429688 -15.625 8.722656 -15.976562 7.828125 -16.03125 C 7.441406 -16.050781 6.960938 -16.0625 6.390625 -16.0625 Z M 6.390625 -16.0625 "/></g></g></g><g fill="#1d1d1d" fill-opacity="1"><g transform="translate(315.618505, 232.864175)"><g><path d="M 1.75 -0.234375 C 2.164062 -0.234375 2.519531 -0.378906 2.8125 -0.671875 C 3.113281 -0.972656 3.269531 -1.332031 3.28125 -1.75 L 3.28125 -15.1875 C 3.238281 -15.570312 3.070312 -15.894531 2.78125 -16.15625 C 2.5 -16.425781 2.15625 -16.5625 1.75 -16.5625 L 1.46875 -16.5625 L 1.4375 -16.796875 L 8.46875 -16.796875 C 8.96875 -16.796875 9.507812 -16.84375 10.09375 -16.9375 C 10.675781 -17.039062 11.085938 -17.140625 11.328125 -17.234375 L 11.328125 -14.203125 L 11.09375 -14.203125 L 11.09375 -14.640625 C 11.09375 -15.023438 10.957031 -15.351562 10.6875 -15.625 C 10.425781 -15.894531 10.113281 -16.039062 9.75 -16.0625 L 4.84375 -16.0625 L 4.84375 -8.640625 L 8.90625 -8.640625 C 9.226562 -8.648438 9.5 -8.769531 9.71875 -9 C 9.945312 -9.226562 10.0625 -9.507812 10.0625 -9.84375 L 10.0625 -10.171875 L 10.296875 -10.171875 L 10.296875 -6.390625 L 10.0625 -6.390625 L 10.0625 -6.75 C 10.0625 -7.0625 9.953125 -7.328125 9.734375 -7.546875 C 9.515625 -7.773438 9.242188 -7.898438 8.921875 -7.921875 L 4.84375 -7.921875 L 4.84375 -0.75 L 8.28125 -0.75 C 9.46875 -0.75 10.367188 -1.007812 10.984375 -1.53125 C 11.609375 -2.0625 12.128906 -2.847656 12.546875 -3.890625 L 12.796875 -3.890625 L 11.40625 0 L 1.4375 0 L 1.4375 -0.234375 Z M 1.75 -0.234375 "/></g></g></g><path stroke-linecap="butt" transform="matrix(0.75, 0, 0, 0.75, 112.499997, 265.100344)" fill="none" stroke-linejoin="miter" d="M 0.00000385 0.00162441 L 200.000017 0.00162441 " stroke="#000000" stroke-width="1" stroke-opacity="1" stroke-miterlimit="4"/></svg>